HIERARCHY
ROOT Hips
{
	OFFSET	0.00	0.00	0.00
	CHANNELS 6 Xposition Yposition Zposition Zrotation Xrotation Yrotation
	JOINT LeftUpLeg
	{
		OFFSET	 0.126116	-0.014019	-0.065224
		CHANNELS 3 Zrotation Xrotation Yrotation
		JOINT LeftLeg
		{
			OFFSET	 0.000000	 0.000000	 0.569914
			CHANNELS 3 Zrotation Xrotation Yrotation
			JOINT LeftFoot
			{
				OFFSET	 0.000000	 0.000000	 0.544423
				CHANNELS 3 Zrotation Xrotation Yrotation
				JOINT LeftToeBase
				{
					OFFSET	 0.000000	 0.000000	 0.207117
					CHANNELS 3 Zrotation Xrotation Yrotation
					End Site
					{
						OFFSET	 0.000000	 0.000000	 0.207117
					}
				}
			}
		}
	}
	JOINT RightUpLeg
	{
		OFFSET	-0.124023	-0.008373	-0.065224
		CHANNELS 3 Zrotation Xrotation Yrotation
		JOINT RightLeg
		{
			OFFSET	 0.000000	 0.000000	 0.570047
			CHANNELS 3 Zrotation Xrotation Yrotation
			JOINT RightFoot
			{
				OFFSET	 0.000000	 0.000000	 0.544354
				CHANNELS 3 Zrotation Xrotation Yrotation
				JOINT RightToeBase
				{
					OFFSET	 0.000000	 0.000000	 0.207540
					CHANNELS 3 Zrotation Xrotation Yrotation
					End Site
					{
						OFFSET	 0.000000	 0.000000	 0.207540
					}
				}
			}
		}
	}
	JOINT Spine
	{
		OFFSET	 0.000184	-0.007763	 0.117403
		CHANNELS 3 Zrotation Xrotation Yrotation
		JOINT Spine1
		{
			OFFSET	 0.000000	 0.000000	 0.137269
			CHANNELS 3 Zrotation Xrotation Yrotation
			JOINT Spine2
			{
				OFFSET	 0.000000	 0.000000	 0.156879
				CHANNELS 3 Zrotation Xrotation Yrotation
				JOINT LeftShoulder
				{
					OFFSET	 0.080501	-0.002496	 0.160144
					CHANNELS 3 Zrotation Xrotation Yrotation
					JOINT LeftArm
					{
						OFFSET	 0.000000	 0.000000	 0.164363
						CHANNELS 3 Zrotation Xrotation Yrotation
						JOINT LeftForeArm
						{
							OFFSET	 0.000000	 0.000000	 0.364576
							CHANNELS 3 Zrotation Xrotation Yrotation
							JOINT LeftHand
							{
								OFFSET	 0.000000	 0.000000	 0.360812
								CHANNELS 3 Zrotation Xrotation Yrotation
								JOINT LeftHandIndex1
								{
									OFFSET	 0.000000	 0.000000	 0.086006
									CHANNELS 3 Zrotation Xrotation Yrotation
									JOINT LeftHandIndex2
									{
										OFFSET	 0.000000	 0.000000	 0.047236
										CHANNELS 3 Zrotation Xrotation Yrotation
										JOINT LeftHandIndex3
										{
											OFFSET	-0.004284	-0.000551	 0.038166
											CHANNELS 3 Zrotation Xrotation Yrotation
											End Site
											{
												OFFSET	-0.004284	-0.000551	 0.038166
											}
										}
									}
								}
							}
						}
					}
				}
				JOINT Neck
				{
					OFFSET	 0.000000	 0.000000	 0.176489
					CHANNELS 3 Zrotation Xrotation Yrotation
					JOINT Head
					{
						OFFSET	 0.000000	-0.001747	 0.077940
						CHANNELS 3 Zrotation Xrotation Yrotation
						End Site
						{
							OFFSET	 0.000000	-0.001747	 0.077940
						}
					}
				}
				JOINT RightShoulder
				{
					OFFSET	-0.080363	 0.000306	 0.159706
					CHANNELS 3 Zrotation Xrotation Yrotation
					JOINT RightArm
					{
						OFFSET	 0.000000	 0.000000	 0.164196
						CHANNELS 3 Zrotation Xrotation Yrotation
						JOINT RightForeArm
						{
							OFFSET	 0.000000	 0.000000	 0.365611
							CHANNELS 3 Zrotation Xrotation Yrotation
							JOINT RightHand
							{
								OFFSET	 0.000000	 0.000000	 0.360648
								CHANNELS 3 Zrotation Xrotation Yrotation
								JOINT RightHandIndex1
								{
									OFFSET	 0.000000	 0.000000	 0.069977
									CHANNELS 3 Zrotation Xrotation Yrotation
									JOINT RightHandIndex2
									{
										OFFSET	 0.000000	 0.000000	 0.052305
										CHANNELS 3 Zrotation Xrotation Yrotation
										JOINT RightHandIndex3
										{
											OFFSET	 0.009002	-0.000782	 0.042196
											CHANNELS 3 Zrotation Xrotation Yrotation
											End Site
											{
												OFFSET	 0.009002	-0.000782	 0.042196
											}
										}
									}
								}
							}
						}
					}
				}
			}
		}
	}
}
MOTION
Frames:    13
Frame Time: 0.03333334
-0.000427	 0.017806	 1.268630	-0.001216	 0.016884	-0.052058	 2.748506	-2.776170	 177.855800	 1.448628	-13.783900	-0.808653	-7.518130	 71.882960	 1.429398	-2.385833	 28.452760	 0.000004	-2.862551	-3.196785	-177.772700	-1.428072	-14.307890	 0.825232	 7.344377	 72.091840	-1.402132	 2.384658	 28.388730	 0.000004	-12.864450	 1.763660	 0.037446	 0.656566	 6.931112	 0.268732	-1.922120	-8.834922	-0.537576	-91.776160	 78.527430	 180.000000	 54.078290	 38.290160	-51.875190	-23.104740	 2.597974	-8.935188	-39.129680	-13.426760	-6.615885	-2.635965	 4.993658	 6.788941	-5.165319	 0.784187	 3.516649	-5.225038	 0.466231	 0.424329	-0.000002	-3.783157	-0.089647	-1.780410	 3.044918	 0.047310	 89.782100	 78.203900	 180.000000	 1.099283	 12.946220	 103.000600	-19.444810	 2.262466	 9.038448	 11.266820	-15.637230	-3.895180	 6.112037	 4.509576	-0.364401	 4.968462	 1.518543	-9.347576	 5.168945	 0.703820	 2.021906
-0.000448	 0.017631	 1.268820	-0.001219	 0.016338	-0.061229	 2.752835	-2.684783	 177.857700	 1.451268	-13.600810	-0.797494	-7.462043	 71.768530	 1.371013	-2.385833	 28.452760	 0.000004	-2.865916	-3.112684	-177.758100	-1.430376	-14.151760	 0.815848	 7.296865	 71.997710	-1.352600	 2.384658	 28.388730	 0.000004	-12.430510	 1.776248	 0.031825	 0.733403	 6.892493	 0.300480	-2.154627	-8.780369	-0.601187	-91.776200	 78.527450	-180.000000	 54.099980	 38.283920	-51.928280	-23.198440	 2.627650	-8.985442	-39.109090	-12.997340	-6.542616	-2.635965	 4.993658	 6.788941	-5.165319	 0.784187	 3.516649	-5.225038	 0.466231	 0.424329	-0.000002	-3.783157	-0.089647	-1.999543	 3.059600	 0.053392	 89.782160	 78.203920	 179.999900	 1.129065	 13.016790	 103.024300	-19.409870	 2.291915	 9.089443	 11.330250	-15.263600	-3.966453	 6.112037	 4.509576	-0.364401	 4.968462	 1.518543	-9.347576	 5.168945	 0.703820	 2.021906
-0.000478	 0.017306	 1.269140	-0.001107	 0.015095	-0.078231	 2.760286	-2.525882	 177.862100	 1.455752	-13.283680	-0.778206	-7.366341	 71.568470	 1.271357	-2.385833	 28.452760	 0.000004	-2.871940	-2.967243	-177.732000	-1.434269	-13.884010	 0.799783	 7.216325	 71.834770	-1.268631	 2.384658	 28.388730	 0.000004	-11.576230	 1.843212	 0.061927	 0.874421	 6.734479	 0.284292	-2.563022	-8.631626	-0.677374	-91.776200	 78.527470	 180.000000	 54.155850	 38.278630	-52.058370	-23.365650	 2.681321	-9.075435	-39.062020	-12.156660	-6.397198	-2.635965	 4.993658	 6.788941	-5.165319	 0.784187	 3.516649	-5.225038	 0.466231	 0.424329	-0.000002	-3.783157	-0.089647	-2.391097	 3.090777	 0.064504	 89.782200	 78.203850	 179.999900	 1.113502	 13.168790	 103.046000	-19.356270	 2.344775	 9.180282	 11.456180	-14.501830	-4.107583	 6.112037	 4.509576	-0.364401	 4.968462	 1.518543	-9.347576	 5.168945	 0.703820	 2.021906
-0.000488	 0.016939	 1.269385	-0.000835	 0.013431	-0.096640	 2.766617	-2.394089	 177.870100	 1.459337	-13.024230	-0.762463	-7.288993	 71.395030	 1.191041	-2.385833	 28.452760	 0.000004	-2.877142	-2.848282	-177.706700	-1.437260	-13.674090	 0.787215	 7.153627	 71.699390	-1.203434	 2.384658	 28.388730	 0.000004	-10.567960	 1.874291	 0.060667	 1.015918	 6.635994	 0.329193	-2.989045	-8.490619	-0.783984	-91.776240	 78.527450	-180.000000	 54.245510	 38.282740	-52.253750	-23.534630	 2.736114	-9.166153	-38.995760	-11.180190	-6.225695	-2.635965	 4.993658	 6.788941	-5.165319	 0.784187	 3.516649	-5.225038	 0.466231	 0.424329	-0.000002	-3.783157	-0.089647	-2.796178	 3.130488	 0.076408	 89.782170	 78.203920	 179.999900	 1.166332	 13.375630	 103.053600	-19.312850	 2.398776	 9.271728	 11.444400	-13.526010	-4.276911	 6.112037	 4.509576	-0.364401	 4.968462	 1.518543	-9.347576	 5.168945	 0.703820	 2.021906
-0.000480	 0.016579	 1.269524	-0.000449	 0.011582	-0.114150	 2.770986	-2.307100	 177.880900	 1.461597	-12.857430	-0.752361	-7.239306	 71.271040	 1.139765	-2.385833	 28.452760	 0.000004	-2.880780	-2.771541	-177.685400	-1.439005	-13.550170	 0.779806	 7.116402	 71.609410	-1.164986	 2.384658	 28.388730	 0.000004	-9.518978	 1.907772	 0.059613	 1.143600	 6.529819	 0.371527	-3.374663	-8.339270	-0.878828	-91.776190	 78.527420	-180.000000	 54.359970	 38.301340	-52.495690	-23.680350	 2.784591	-9.245324	-38.916130	-10.189650	-6.049834	-2.635965	 4.993658	 6.788941	-5.165319	 0.784187	 3.516649	-5.225038	 0.466231	 0.424329	-0.000002	-3.783157	-0.089647	-3.164471	 3.174045	 0.087682	 89.782160	 78.203890	 179.999900	 1.207266	 13.614590	 103.039100	-19.283640	 2.445827	 9.350318	 11.058520	-12.377010	-4.457213	 6.112037	 4.509576	-0.364401	 4.968462	 1.518543	-9.347576	 5.168945	 0.703820	 2.021906
-0.000478	 0.016195	 1.269818	-0.000640	 0.010146	-0.128069	 2.778368	-2.153207	 177.882500	 1.465661	-12.551850	-0.733885	-7.151806	 71.072240	 1.048607	-2.385833	 28.452760	 0.000004	-2.886908	-2.627342	-177.662100	-1.442617	-13.289460	 0.764244	 7.042756	 71.446720	-1.088263	 2.384658	 28.388730	 0.000004	-8.234714	 1.948274	 0.052977	 1.278827	 6.397319	 0.415501	-3.782274	-8.151696	-0.975635	-91.776160	 78.527470	 180.000000	 54.517450	 38.341370	-52.827500	-23.821000	 2.830432	-9.319601	-38.806240	-9.019995	-5.841165	-2.635965	 4.993658	 6.788941	-5.165319	 0.784187	 3.516649	-5.225038	 0.466231	 0.424329	-0.000002	-3.783157	-0.089647	-3.555965	 3.229314	 0.100255	 89.782130	 78.203850	 180.000000	 0.335284	 14.142790	 102.899800	-18.920810	 2.494548	 9.428013	 10.224960	-11.001080	-4.626966	 6.112037	 4.509576	-0.364401	 4.968462	 1.518543	-9.347576	 5.168945	 0.703820	 2.021906
-0.000500	 0.015911	 1.270336	-0.000761	 0.008856	-0.138996	 2.789310	-1.895527	 177.873000	 1.472357	-12.029710	-0.702419	-7.007239	 70.770550	 0.896648	-2.385833	 28.452760	 0.000004	-2.897267	-2.384742	-177.633800	-1.448934	-12.819290	 0.736264	 6.912884	 71.182490	-0.951866	 2.384658	 28.388730	 0.000004	-7.056453	 1.985437	 0.046743	 1.386016	 6.275228	 0.451878	-4.106225	-7.979758	-1.050508	-91.776150	 78.527430	 180.000000	 54.667740	 38.391040	-53.146800	-23.917670	 2.862335	-9.370879	-38.694540	-7.992937	-5.658025	-2.635965	 4.993658	 6.788941	-5.165319	 0.784187	 3.516649	-5.225038	 0.466231	 0.424329	-0.000002	-3.783157	-0.089647	-3.868827	 3.281259	 0.110839	 89.782120	 78.203900	 180.000000	-1.705992	 14.779820	 102.652900	-18.216670	 2.532170	 9.480235	 9.850860	-10.035170	-4.726735	 6.112037	 4.509576	-0.364401	 4.968462	 1.518543	-9.347576	 5.168945	 0.703820	 2.021906
-0.000539	 0.015625	 1.271105	-0.000805	 0.007349	-0.150367	 2.805484	-1.499300	 177.852900	 1.482114	-11.222580	-0.654016	-6.793119	 70.320490	 0.670571	-2.385833	 28.452760	 0.000004	-2.911740	-2.052022	-177.598200	-1.457304	-12.166300	 0.697575	 6.738706	 70.822780	-0.768384	 2.384658	 28.388730	 0.000004	-5.649900	 2.029482	 0.039362	 1.496964	 6.130121	 0.491379	-4.442571	-7.776421	-1.125953	-91.776120	 78.527490	 180.000000	 54.860840	 38.462060	-53.552500	-23.994720	 2.887911	-9.411704	-38.549140	-6.829148	-5.451801	-2.635965	 4.993658	 6.788941	-5.165319	 0.784187	 3.516649	-5.225038	 0.466231	 0.424329	-0.000002	-3.783157	-0.089647	-4.195532	 3.344265	 0.122518	 89.782090	 78.203850	 180.000000	-5.076578	 15.640710	 102.185600	-17.117280	 2.567248	 9.521634	 9.872758	-9.167661	-4.801366	 6.112037	 4.509576	-0.364401	 4.968462	 1.518543	-9.347576	 5.168945	 0.703820	 2.021906
-0.000571	 0.015319	 1.271920	-0.001061	 0.006080	-0.160144	 2.820007	-1.421885	 177.855700	 1.483837	-11.073430	-0.645102	-6.741118	 70.202620	 0.627324	-2.385833	 28.452760	 0.000004	-2.912180	-2.048991	-177.589400	-1.456926	-12.196660	 0.699369	 6.748488	 70.808850	-0.779670	 2.384658	 28.388730	 0.000004	-4.048774	 2.078505	 0.029716	 1.605342	 5.966446	 0.531170	-4.771447	-7.548571	-1.196595	-91.776250	 78.527470	-179.999900	 55.091820	 38.556770	-54.041480	-24.037240	 2.902266	-9.434379	-38.365020	-5.591211	-5.234755	-2.635965	 4.993658	 6.788941	-5.165319	 0.784187	 3.516649	-5.225038	 0.466231	 0.424329	-0.000002	-3.783157	-0.089647	-4.517335	 3.416962	 0.134796	 89.782100	 78.203850	 180.000000	-9.291045	 16.901830	 101.194700	-15.628170	 2.594468	 9.545315	 10.532090	-8.516942	-4.828106	 6.112037	 4.509576	-0.364401	 4.968462	 1.518543	-9.347576	 5.168945	 0.703820	 2.021906
-0.000591	 0.015019	 1.272670	-0.000971	 0.005377	-0.167941	 2.821804	-1.414791	 177.862600	 1.483898	-11.068350	-0.644800	-6.738986	 70.160510	 0.626837	-2.385833	 28.452760	 0.000004	-2.901960	-2.044142	-177.583000	-1.456621	-12.221000	 0.700808	 6.771471	 70.793640	-0.793174	 2.384658	 28.388730	 0.000004	-2.445247	 2.126293	 0.019763	 1.698128	 5.804566	 0.567829	-5.054543	-7.324556	-1.254950	-91.776210	 78.527450	-180.000000	 55.332340	 38.657990	-54.548080	-24.034980	 2.903254	-9.435498	-38.160980	-4.448238	-5.037740	-2.635965	 4.993658	 6.788941	-5.165319	 0.784187	 3.516649	-5.225038	 0.466231	 0.424329	-0.000002	-3.783157	-0.089647	-4.796382	 3.490520	 0.146216	 89.782100	 78.203890	 180.000000	-13.712390	 18.526000	 99.645610	-13.990950	 2.608309	 9.544533	 11.793890	-8.130336	-4.741508	 6.112037	 4.509576	-0.364401	 4.968462	 1.518543	-9.347576	 5.168945	 0.703820	 2.021906
-0.000609	 0.014720	 1.273339	-0.000695	 0.004838	-0.174455	 2.823538	-1.408540	 177.868100	 1.483944	-11.064470	-0.644568	-6.737201	 70.119010	 0.626939	-2.385833	 28.452760	 0.000004	-2.902324	-2.039176	-177.577000	-1.456336	-12.243810	 0.702156	 6.780867	 70.777850	-0.803247	 2.384658	 28.388730	 0.000004	-0.738467	 2.176168	 0.008925	 1.782916	 5.634483	 0.603687	-5.314478	-7.090572	-1.305951	-91.776150	 78.527470	 180.000000	 55.592460	 38.773820	-55.109140	-23.986090	 2.885567	-9.407815	-37.923150	-3.343330	-4.851822	-2.635965	 4.993658	 6.788941	-5.165319	 0.784187	 3.516649	-5.225038	 0.466231	 0.424329	-0.000002	-3.783157	-0.089647	-5.054605	 3.569635	 0.157594	 89.782130	 78.203830	 180.000000	-18.570080	 20.537590	 97.652570	-12.290280	 2.607577	 9.520042	 13.447260	-7.869907	-4.542377	 6.112037	 4.509576	-0.364401	 4.968462	 1.518543	-9.347576	 5.168945	 0.703820	 2.021906
-0.000628	 0.014408	 1.273794	-0.000349	 0.004188	-0.180673	 2.825302	-1.402880	 177.873400	 1.483960	-11.062930	-0.644475	-6.735796	 70.073830	 0.627600	-2.385833	 28.452760	 0.000004	-2.902913	-2.032441	-177.571200	-1.456042	-12.267260	 0.703544	 6.790953	 70.759030	-0.814153	 2.384658	 28.388730	 0.000004	 1.293135	 2.234731	-0.003796	 1.868672	 5.434421	 0.642457	-5.578397	-6.817143	-1.354357	-91.776160	 78.527450	 180.000000	 55.898930	 38.910310	-55.796050	-23.868230	 2.845662	-9.344243	-37.612540	-2.186023	-4.663904	-2.635965	 4.993658	 6.788941	-5.165319	 0.784187	 3.516649	-5.225038	 0.466231	 0.424329	-0.000002	-3.783157	-0.089647	-5.319320	 3.665092	 0.170298	 89.782130	 78.203890	 180.000000	-24.379640	 23.141640	 95.099540	-10.388440	 2.585908	 9.455175	 15.373540	-7.611445	-4.172991	 6.112037	 4.509576	-0.364401	 4.968462	 1.518543	-9.347576	 5.168945	 0.703820	 2.021906
-0.000640	 0.014118	 1.274107	-0.000016	 0.003581	-0.185293	 2.826770	-1.399390	 177.877500	 1.483936	-11.064860	-0.644590	-6.735215	 70.034680	 0.628898	-2.385833	 28.452760	 0.000004	-2.903563	-2.025508	-177.566800	-1.455796	-12.286880	 0.704706	 6.799799	 70.741200	-0.823768	 2.384658	 28.388730	 0.000004	 3.219297	 2.289683	-0.015682	 1.937411	 5.246295	 0.675862	-5.790846	-6.561743	-1.390051	-91.776120	 78.527470	 179.999900	 56.188580	 39.040830	-56.456420	-23.696480	 2.789307	-9.253067	-37.289840	-1.256953	-4.520309	-2.635965	 4.993658	 6.788941	-5.165319	 0.784187	 3.516649	-5.225038	 0.466231	 0.424329	-0.000002	-3.783157	-0.089647	-5.534758	 3.757214	 0.181664	 89.782120	 78.203900	 180.000000	-28.782820	 25.411810	 88.504910	-9.045112	 3.371120	 16.282270	 16.923100	-7.359090	-3.691666	 6.112037	 4.509576	-0.364401	 4.968462	 1.518543	-9.347576	 5.168945	 0.703820	 2.021906
